Coordinates
version=1
nRows=65
nColumns=12
inDegrees=yes

Units are S.I. units (second, meters, Newtons, ...)
Angles are in degrees

endheader
time	SC_y	SC_z	SC_x	AC_y	AC_z	AC_x	GH_y	GH_z	GH_yy	EL_x	PS_y
       0.0              -19.09          25.96          38.39          56.74         -2.867         -16.44          117.4          39.11         -17.74          52.78          81.68
   0.02978              -19.09          25.96          38.39          56.73         -2.868         -16.44          117.4          39.11         -17.75          52.79          81.68
   0.05957              -19.09          25.96          38.38          56.73          -2.87         -16.43          117.3          39.11         -17.77          52.79          81.67
   0.08935               -19.1          25.96          38.38          56.73         -2.871         -16.43          117.3          39.12         -17.78          52.79          81.67
    0.1191               -19.1          25.96          38.38          56.72         -2.873         -16.43          117.2          39.12         -17.79           52.8          81.67
    0.1489              -19.11          25.96          38.37          56.72         -2.875         -16.43          117.2          39.12         -17.81           52.8          81.66
    0.1787              -19.11          25.95          38.37          56.72         -2.876         -16.42          117.1          39.13         -17.82          52.81          81.66
    0.2085              -19.12          25.95          38.36          56.71         -2.878         -16.42          117.1          39.13         -17.84          52.81          81.66
    0.2383              -19.12          25.95          38.36          56.71          -2.88         -16.42          117.0          39.14         -17.86          52.82          81.65
    0.2681              -19.13          25.95          38.35           56.7         -2.883         -16.42          116.9          39.14         -17.88          52.82          81.65
    0.2978              -19.13          25.94          38.34           56.7         -2.885         -16.41          116.8          39.15          -17.9          52.83          81.64
    0.3276              -19.14          25.94          38.34          56.69         -2.887         -16.41          116.8          39.15         -17.92          52.84          81.64
    0.3574              -19.15          25.94          38.33          56.69          -2.89          -16.4          116.7          39.16         -17.95          52.84          81.63
    0.3872              -19.16          25.93          38.32          56.68         -2.893          -16.4          116.6          39.16         -17.97          52.85          81.63
     0.417              -19.16          25.93          38.32          56.67         -2.896          -16.4          116.5          39.17          -18.0          52.86          81.62
    0.4468              -19.17          25.92          38.31          56.67           -2.9         -16.39          116.4          39.18         -18.03          52.87          81.61
    0.4765              -19.18          25.92           38.3          56.66         -2.904         -16.38          116.3          39.19         -18.07          52.88          81.61
    0.5063              -19.19          25.91          38.29          56.65         -2.908         -16.38          116.2          39.19          -18.1          52.89           81.6
    0.5361              -19.21          25.91          38.27          56.64         -2.912         -16.37          116.0           39.2         -18.14           52.9          81.59
    0.5659              -19.22           25.9          38.26          56.63         -2.917         -16.37          115.9          39.22         -18.19          52.91          81.58
    0.5957              -19.23           25.9          38.25          56.62         -2.922         -16.36          115.7          39.23         -18.24          52.93          81.57
    0.6255              -19.25          25.89          38.23          56.61         -2.928         -16.35          115.5          39.24         -18.29          52.94          81.56
    0.6552              -19.27          25.88          38.21          56.59         -2.935         -16.34          115.3          39.25         -18.35          52.96          81.54
     0.685              -19.29          25.87          38.19          56.58         -2.942         -16.33          115.1          39.27         -18.41          52.98          81.53
    0.7148              -19.31          25.86          38.17          56.56          -2.95         -16.32          114.8          39.29         -18.49           53.0          81.51
    0.7446              -19.33          25.85          38.15          56.54         -2.959          -16.3          114.6          39.31         -18.57          53.02          81.49
    0.7744              -19.36          25.84          38.12          56.52         -2.969         -16.29          114.3          39.33         -18.66          53.05          81.47
    0.8042              -19.39          25.82          38.09          56.49         -2.981         -16.27          113.9          39.35         -18.76          53.08          81.45
    0.8339              -19.42          25.81          38.06          56.47         -2.993         -16.25          113.5          39.38         -18.87          53.11          81.42
    0.8637              -19.46          25.79          38.02          56.44         -3.008         -16.23          113.1          39.41          -19.0          53.15          81.39
    0.8935              -19.51          25.77          37.98           56.4         -3.025         -16.21          112.6          39.45         -19.15           53.2          81.36
    0.9233              -19.56          25.75          37.93          56.36         -3.044         -16.18          112.0          39.49         -19.32          53.25          81.32
    0.9531              -19.62          25.72          37.87          56.31         -3.066         -16.15          111.3          39.54         -19.52          53.31          81.28
    0.9829              -19.68          25.69           37.8          56.26         -3.091         -16.11          110.5          39.59         -19.75          53.37          81.22
     1.013              -19.76          25.65          37.73           56.2         -3.121         -16.07          109.6          39.66         -20.02          53.45          81.16
     1.042              -19.86          25.61          37.63          56.12         -3.156         -16.02          108.5          39.73         -20.33          53.54          81.09
     1.072              -19.97          25.56          37.52          56.03         -3.198         -15.96          107.2          39.83         -20.71          53.65          81.01
     1.102               -20.1          25.49          37.39          55.93         -3.248         -15.88          105.7          39.93         -21.16          53.79          80.91
     1.132              -20.26          25.42          37.23           55.8         -3.309          -15.8          103.8          40.07         -21.71          53.95          80.78
     1.162              -20.46          25.33          37.04          55.64         -3.383         -15.69          101.6          40.23         -22.37          54.14          80.63
     1.191              -20.71          25.21           36.8          55.45         -3.475         -15.56          98.74          40.43         -23.19          54.38          80.45
     1.221              -21.01          25.07           36.5           55.2         -3.589         -15.39          95.23          40.67         -24.22          54.69          80.21
     1.251              -21.39           24.9          36.12           54.9         -3.733         -15.18          90.82          40.99         -25.51          55.06          79.92
     1.281              -21.88          24.67          35.64          54.51         -3.916         -14.92          85.21          41.38         -27.15          55.55          79.55
      1.31              -22.51          24.38          35.03          54.01          -4.15         -14.58          78.02          41.89         -29.25          56.16          79.08
      1.34              -23.31          24.01          34.24          53.38          -4.45         -14.14           68.8          42.54         -31.94          56.96          78.47
      1.37              -24.33          23.54          33.23          52.56         -4.834         -13.59          57.03          43.38         -35.39          57.97          77.69
       1.4              -25.62          22.94          31.96          51.54         -5.316         -12.89          42.22          44.42         -39.71          59.24          76.71
      1.43              -27.18          22.21          30.42          50.29         -5.904         -12.03          24.17           45.7         -44.99          60.79          75.52
     1.459               -29.0          21.37          28.63          48.84         -6.586         -11.04          3.256          47.18          -51.1          62.58          74.13
     1.489              -30.97          20.46           26.7          47.28         -7.323         -9.975         -19.39          48.78         -57.72          64.53          72.64
     1.519              -32.94          19.55          24.76          45.71         -8.061         -8.905         -42.04          50.38         -64.34          66.47          71.14
     1.549              -34.75          18.71          22.97          44.26         -8.743         -7.916         -62.96          51.86         -70.46          68.27          69.75
     1.579              -36.32          17.98          21.43          43.01          -9.33         -7.064          -81.0          53.13         -75.73          69.82          68.56
     1.608              -37.61          17.39          20.16          41.99         -9.813         -6.364         -95.81          54.18         -80.06          71.09          67.58
     1.638              -38.63          16.91          19.15          41.18          -10.2         -5.808         -107.6          55.01          -83.5           72.1           66.8
     1.668              -39.43          16.54          18.37          40.54          -10.5         -5.372         -116.8          55.67          -86.2           72.9          66.19
     1.698              -40.05          16.25          17.75          40.04         -10.73         -5.033         -124.0          56.17          -88.3          73.51          65.72
     1.727              -40.54          16.03          17.27          39.65         -10.91         -4.767         -129.6          56.57         -89.94          73.99          65.35
     1.757              -40.93          15.85          16.89          39.35         -11.06         -4.559         -134.0          56.88         -91.23          74.37          65.06
     1.787              -41.23          15.71           16.6          39.11         -11.17         -4.393         -137.5          57.13         -92.25          74.67          64.82
     1.817              -41.47           15.6          16.35          38.91         -11.26          -4.26         -140.3          57.33         -93.07          74.92          64.64
     1.847              -41.67           15.5          16.16          38.75         -11.34         -4.153         -142.6          57.49         -93.74          75.11          64.49
     1.876              -41.83          15.43           16.0          38.63          -11.4         -4.065         -144.5          57.62         -94.28          75.27          64.36
     1.906              -41.97          15.37          15.87          38.52         -11.45         -3.992         -146.0          57.73         -94.74           75.4          64.26
